<?xml version="1.0" encoding="utf-8"?>
<!-- Uploaded to: SVG Repo, www.svgrepo.com, Generator: SVG Repo Mixer Tools -->
<svg width="800px" height="800px" viewBox="0 0 1024 1024" class="icon"  version="1.1" xmlns="http://www.w3.org/2000/svg"><path d="M925.56 689.09Q708 900.94 494.16 900.94q-329.05 0-398.82-211.85l414.59-572.84z" fill="#FFFFFF" /><path d="M217.96 667.51l316.49-566.97 390.13 566.97-181.72 207.72-364.63-71.24-160.27-136.48z" fill="#FFD2D1" /><path d="M534.45 100.54l390.13 566.97-181.72 207.72H651.4L534.45 100.54z" fill="#FF8080" /><path d="M185.38 686l29.93-48.4h159.85q74.68 185 284.83 197.85Q843.36 846.7 903.31 637.6l32.22 48.4Q878.59 907.22 660 907.22q-365.09 0-474.62-221.22z" fill="#3DA40A" /><path d="M624.53 922.83c-164.26 0-302.55-22.66-399.92-65.52-47.34-20.84-84.52-46.18-110.52-75.31-27-30.26-41.51-63.91-43.12-100l40.92-1.82c1.17 26.42 12.19 51.5 32.76 74.54 22.07 24.73 54.53 46.63 96.46 65.09 92.21 40.59 224.79 62 383.42 62z" fill="" /><path d="M642.11 922.83c-54.35 0-108-11.35-155.23-32.82l17-37.29c41.92 19.06 89.74 29.14 138.28 29.14A345.69 345.69 0 0 0 746.28 866c31.62-10 60.19-24.1 84.91-42 48.1-34.77 75.69-80.12 75.69-124.42a83.78 83.78 0 0 1 0.45-8.6 11.88 11.88 0 0 0-0.09-4.44l40.36-7a51.44 51.44 0 0 1 0.5 15.29 44.14 44.14 0 0 0-0.27 4.72c0 57.6-33.77 115.05-92.65 157.62-58.51 42.36-134.18 65.66-213.07 65.66zM82.73 674.07h279.72v30.72H82.73v-30.72z" fill="" /><path d="M359.59 704.89a20.5 20.5 0 0 1-19.74-26l160.43-576.4a20.48 20.48 0 0 1 39.46 11L379.31 689.9a20.49 20.49 0 0 1-19.72 14.99z" fill="" /><path d="M118.45 620.87h266.72v30.72H118.45z" fill="" /><path d="M647.33 850.13c-32.38 0-66.33-6.48-100.91-19.25a372.24 372.24 0 0 1-90.23-48.64c-58.26-42.84-93-95.45-93-140.73h30.72c0 35 30.86 79.46 80.52 116 52.74 38.77 117.39 61.92 172.95 61.92s115.5-22.68 164.86-62.23c45.3-36.3 73.44-81.15 73.44-117.06h30.72c0 45.69-31.76 98.41-85 141-54.71 43.86-121.8 68.99-184.07 68.99z" fill="" /><path d="M103.71 706.14l-32.97-24.31L523.78 67.44l424.89 614.9-33.7 23.28-392.27-567.7-418.99 568.22z" fill="" /><path d="M647.19 743.64c-22.61 0-38.41-13.47-38.41-32.77 0-18.81 9.77-42.76 29.86-73.22l8.55-13 8.55 13c20.09 30.46 29.86 54.41 29.86 73.22 0 17.77-17.6 32.77-38.41 32.77z m0-81c-9.42 16.06-17.93 34.4-17.93 48.25 0 1.26 0.5 12.29 17.93 12.29 10.1 0 17.93-6.6 17.93-12.29 0-8.5-3.35-23.46-17.93-48.27zM457 849.31a16.92 16.92 0 0 1-7.23-1.62c-35.58-16.74-65.1-41.31-81-67.4a17 17 0 1 1 29-17.69c12.33 20.24 37.17 40.55 66.43 54.32a17 17 0 0 1-7.2 32.39zM512 698.59c-22.62 0-38.41-13.47-38.41-32.77 0-18.81 9.77-42.76 29.86-73.22l8.55-13 8.55 13c20.09 30.46 29.86 54.41 29.86 73.22-0.03 17.76-17.62 32.77-38.41 32.77z m0-81c-9.45 16.04-18 34.41-18 48.23 0 1.26 0.5 12.29 17.93 12.29 10.1 0 17.93-6.6 17.93-12.29 0.04-8.49-3.3-23.44-17.86-48.25zM759.87 698.59c-22.61 0-38.41-13.47-38.41-32.77 0-18.81 9.77-42.76 29.86-73.22l8.55-13 8.55 13c20.09 30.46 29.86 54.41 29.86 73.22 0 17.76-17.59 32.77-38.41 32.77z m0-81c-9.42 16.06-17.93 34.4-17.93 48.25 0 1.26 0.5 12.29 17.93 12.29 10.1 0 17.93-6.6 17.93-12.29 0-8.51-3.35-23.46-17.93-48.27z" fill="" /></svg>