<?xml version="1.0" encoding="iso-8859-1"?>
<!-- Uploaded to: SVG Repo, www.svgrepo.com, Generator: SVG Repo Mixer Tools -->
<svg height="800px" width="800px" version="1.1" id="Layer_1" xmlns="http://www.w3.org/2000/svg" xmlns:xlink="http://www.w3.org/1999/xlink" 
	 viewBox="0 0 512 512" xml:space="preserve">
<circle style="fill:#663A00;" cx="474.305" cy="244.402" r="23.148"/>
<circle style="fill:#9A4C00;" cx="474.305" cy="332.01" r="30.093"/>
<circle style="fill:#AA6100;" cx="465.94" cy="288.799" r="37.807"/>
<path style="fill:#9A4C00;" d="M465.943,250.986c10.856,0,20.638,4.583,27.533,11.912l-50.142,56.205
	c-9.227-6.894-15.201-17.904-15.201-30.307C428.134,267.913,445.063,250.986,465.943,250.986z"/>
<circle style="fill:#663A00;" cx="37.695" cy="244.402" r="23.148"/>
<circle style="fill:#9A4C00;" cx="37.695" cy="332.01" r="30.093"/>
<circle style="fill:#AA6100;" cx="46.06" cy="288.799" r="37.807"/>
<path style="fill:#9A4C00;" d="M46.057,250.986c-10.856,0-20.638,4.583-27.533,11.912l50.142,56.205
	c9.227-6.894,15.201-17.904,15.201-30.307C83.866,267.913,66.937,250.986,46.057,250.986z"/>
<path style="fill:#5EAC24;" d="M427.073,148.325c11.92,12.772,9.674,20.01,26.776,34.805c17.101,14.795,23.94,11.532,38.295,21.491
	c1.81,1.394,6.663,6.346-0.996,15.2l-61.533,68.974l-57.322-91.199l39.883-46.099C419.834,142.645,425.434,146.736,427.073,148.325z
	"/>
<path style="fill:#4E901E;" d="M427.073,148.325c-1.639-1.591-7.239-5.682-14.898,3.171l-39.883,46.099l32.235,51.284l32.235-86.981
	C434.369,157.703,431.866,153.462,427.073,148.325z"/>
<path style="fill:#6DC82A;" d="M323.825,105.06c15.643,7.78,16.078,15.346,37.282,23.203c21.204,7.858,26.465,2.403,43.399,6.696
	c2.184,0.67,8.466,3.606,4.398,14.583l-21.183,57.158l-97.918-36.288l21.183-57.158C315.053,102.278,321.732,104.145,323.825,105.06
	z"/>
<path style="fill:#5EAC24;" d="M84.927,148.325c-11.92,12.772-9.674,20.01-26.776,34.805c-17.101,14.795-23.94,11.532-38.294,21.491
	c-1.81,1.394-6.663,6.346,0.996,15.2l61.533,68.974l57.322-91.199l-39.883-46.098C92.166,142.645,86.567,146.736,84.927,148.325z"/>
<path style="fill:#4E901E;" d="M99.825,151.498c-7.66-8.853-13.258-4.762-14.898-3.171c-4.794,5.136-7.296,9.377-9.687,13.575
	l32.235,86.981l32.235-51.284L99.825,151.498z"/>
<path style="fill:#6DC82A;" d="M188.175,105.06c-15.643,7.78-16.078,15.346-37.282,23.203s-26.465,2.403-43.399,6.696
	c-2.184,0.67-8.466,3.606-4.398,14.583l21.183,57.158l97.918-36.288l-21.183-57.158C196.947,102.278,190.268,104.145,188.175,105.06
	z"/>
<g>
	<path style="fill:#5EAC24;" d="M338.629,188.508v-73.324c-4.032-3.362-7.964-6.723-14.803-10.124
		c-2.093-0.914-8.771-2.782-12.84,8.195l-21.183,57.158L338.629,188.508z"/>
	<path style="fill:#5EAC24;" d="M173.371,188.508l48.826-18.094l-21.183-57.158c-4.068-10.977-10.746-9.11-12.84-8.195
		c-6.84,3.402-10.771,6.762-14.803,10.124V188.508z"/>
</g>
<path style="fill:#91DC5A;" d="M299.021,100.334c-17.372,1.859-20.408,8.802-43.021,8.802s-25.651-6.943-43.021-8.802
	c-2.28-0.13-9.192,0.44-9.192,12.146v60.957h104.426V112.48C308.213,100.774,301.301,100.205,299.021,100.334z"/>
<circle style="fill:#FFE477;" cx="312.097" cy="186.004" r="30.477"/>
<circle style="fill:#FF3F62;" cx="364.483" cy="206.696" r="30.477"/>
<circle style="fill:#FFE477;" cx="410.239" cy="237.183" r="30.477"/>
<circle style="fill:#FF3F62;" cx="256" cy="179.616" r="30.477"/>
<circle style="fill:#FFE477;" cx="199.903" cy="186.004" r="30.477"/>
<circle style="fill:#FF3F62;" cx="147.517" cy="206.696" r="30.477"/>
<circle style="fill:#FFE477;" cx="101.751" cy="237.183" r="30.477"/>
<path style="fill:#FFC477;" d="M482.768,376.702C465.899,266.623,370.796,182.312,256,182.312S46.101,266.623,29.232,376.702
	c-0.014,0.194-6.261,35.04,31.291,35.04h390.955C489.03,411.741,482.784,376.895,482.768,376.702z"/>
<g>
	<path style="fill:#FFB655;" d="M29.232,376.701c-0.014,0.194-6.261,35.04,31.291,35.04h63.704
		c-37.552,0-31.306-34.845-31.291-35.04c15.281-99.714,94.759-178.282,194.917-192.195c-10.41-1.446-21.044-2.195-31.852-2.195
		C141.204,182.312,46.101,266.623,29.232,376.701z"/>
	<path style="fill:#FFB655;" d="M246.761,304.63c-1.998,0-3.954-0.811-5.373-2.22c-1.419-1.419-2.23-3.376-2.23-5.384
		c0-1.997,0.811-3.964,2.23-5.373c1.418-1.419,3.375-2.23,5.373-2.23c2.006,0,3.964,0.811,5.384,2.23
		c1.41,1.419,2.22,3.376,2.22,5.373c0,2.007-0.811,3.964-2.22,5.384C250.725,303.819,248.767,304.63,246.761,304.63z"/>
	<path style="fill:#FFB655;" d="M165.947,301.912c-1.998,0-3.954-0.811-5.373-2.22c-1.419-1.419-2.23-3.376-2.23-5.384
		c0-1.997,0.811-3.964,2.23-5.373c1.418-1.419,3.375-2.23,5.373-2.23c2.006,0,3.964,0.811,5.384,2.23
		c1.41,1.419,2.22,3.376,2.22,5.373c0,2.007-0.811,3.964-2.22,5.384C169.911,301.101,167.953,301.912,165.947,301.912z"/>
	<path style="fill:#FFB655;" d="M342.579,357.214c-1.998,0-3.954-0.811-5.373-2.22c-1.419-1.419-2.23-3.376-2.23-5.384
		c0-1.997,0.811-3.964,2.23-5.373c1.418-1.419,3.375-2.23,5.373-2.23c2.006,0,3.964,0.811,5.384,2.23
		c1.41,1.419,2.22,3.376,2.22,5.373c0,2.007-0.811,3.964-2.22,5.384C346.544,356.403,344.586,357.214,342.579,357.214z"/>
	<path style="fill:#FFB655;" d="M281.621,253.395c-1.998,0-3.954-0.811-5.373-2.22c-1.419-1.419-2.23-3.376-2.23-5.384
		c0-1.997,0.811-3.964,2.23-5.373c1.418-1.419,3.375-2.23,5.373-2.23c2.006,0,3.964,0.811,5.384,2.23
		c1.41,1.419,2.22,3.376,2.22,5.373c0,2.007-0.811,3.964-2.22,5.384C285.586,252.584,283.629,253.395,281.621,253.395z"/>
	<path style="fill:#FFB655;" d="M197.784,365.992c-1.998,0-3.954-0.811-5.373-2.22c-1.419-1.419-2.23-3.376-2.23-5.384
		c0-1.997,0.811-3.964,2.23-5.373c1.418-1.419,3.375-2.23,5.373-2.23c2.006,0,3.964,0.811,5.384,2.23
		c1.41,1.419,2.22,3.376,2.22,5.373c0,2.007-0.811,3.964-2.22,5.384C201.748,365.181,199.792,365.992,197.784,365.992z"/>
	<circle style="fill:#FFB655;" cx="328.481" cy="285.048" r="16.384"/>
	<circle style="fill:#FFB655;" cx="286.477" cy="349.61" r="16.384"/>
	<circle style="fill:#FFB655;" cx="209.139" cy="261.222" r="16.384"/>
	<path style="fill:#FFB655;" d="M430.153,332.241c-11.348-24.807-28.27-47.378-48.934-65.27c-3.175-2.749-3.52-7.551-0.772-10.727
		c2.751-3.174,7.552-3.518,10.726-0.771c22.3,19.309,40.561,43.667,52.809,70.441c1.747,3.819,0.127,8.467-3.751,10.078
		C433.811,338.661,431.431,335.034,430.153,332.241z"/>
	<path style="fill:#FFB655;" d="M445.022,381.406c-1.228-8.486-3.292-16.929-5.782-25.15c-1.218-4.019,1.053-8.264,5.073-9.482
		c4.02-1.221,8.263,1.053,9.482,5.072c2.69,8.879,4.792,18.02,6.247,27.169c0.659,4.147-2.168,8.044-6.315,8.704
		C453.323,387.785,446.099,388.847,445.022,381.406z"/>
</g>
<path d="M186.72,404.137h-10.815c-4.199,0-7.604,3.405-7.604,7.604c0,4.199,3.405,7.604,7.604,7.604h10.815
	c4.199,0,7.604-3.405,7.604-7.604C194.324,407.541,190.919,404.137,186.72,404.137z"/>
<path d="M512,332.006c0-7.513-2.27-14.882-6.443-21.077c3.697-6.589,5.8-14.152,5.8-22.134c0-10.998-3.932-21.094-10.462-28.961
	c2.704-4.658,4.16-9.976,4.16-15.436c0-7.59-2.726-14.703-7.613-20.255c4.083-4.953,5.896-9.937,5.414-14.832
	c-0.657-6.677-6.276-10.866-6.379-10.938c-6.801-4.719-12.264-6.855-17.083-8.738c-6.272-2.452-11.688-4.569-20.571-12.256
	c-8.884-7.686-11.759-12.741-15.087-18.595c-2.557-4.499-5.457-9.596-11.104-15.648c-0.086-0.092-7.656-7.756-15.255-4.176
	c-1.358-8.311-10.883-11.342-11.004-11.372c-8.024-2.034-13.888-2.118-19.062-2.193c-6.734-0.096-12.549-0.18-23.563-4.263
	c-11.015-4.082-15.481-7.808-20.649-12.123c-3.973-3.315-8.476-7.073-15.888-10.759c-0.113-0.056-9.365-5.596-15.018,0.964
	c-3.979-7.093-13.855-6.455-13.98-6.442c-8.231,0.881-13.759,2.84-18.637,4.567c-6.347,2.249-11.829,4.191-23.575,4.191
	s-17.229-1.943-23.575-4.191c-4.878-1.729-10.405-3.686-18.637-4.567c-0.125-0.013-10.001-1.495-13.98,6.442
	c-6.499-6.498-14.906-1.021-15.018-0.964c-7.412,3.686-11.915,7.444-15.887,10.759c-4.453,3.716-8.297,6.925-16.25,10.364
	c-3.855,1.668-5.339,6.03-3.961,9.998c2.206,6.348,9.014,4.386,9.998,3.961c9.971-4.313,15.277-8.739,19.957-12.646
	c3.758-3.136,7.011-5.85,12.67-8.696c0.1-0.034,0.19-0.055,0.181-0.064c4.178,7.908,4.686,36.174,4.686,36.174
	c-14.478,1.434-26.81,11.144-31.886,24.417c-5.117-2.509-10.827-3.899-16.78-3.899c-9.835,0-18.811,3.748-25.576,9.89
	c0,0-12.409-36.205-12.307-36.247c6.146-1.529,10.381-1.59,15.274-1.66c2.956-0.043,6.012-0.086,9.555-0.467
	c4.176-0.448,7.196-4.197,6.748-8.372c-0.448-4.175-4.199-7.2-8.372-6.748c-2.842,0.305-5.419,0.343-8.148,0.381
	c-5.175,0.074-11.039,0.158-19.063,2.193c-0.123,0.031-8.126,2.555-11.004,11.372c-1.156-0.318-2.33-0.452-3.511-0.563
	c-6.961-0.651-11.657,4.647-11.744,4.739c-5.648,6.052-8.548,11.149-11.105,15.648c-3.329,5.854-6.204,10.909-15.087,18.595
	s-14.299,9.803-20.571,12.256c-4.819,1.884-10.282,4.02-17.083,8.738c-0.103,0.072-5.722,3.416-6.379,10.938
	c-0.428,4.903,1.333,9.886,5.423,14.843c-4.848,5.555-7.622,12.746-7.622,20.244c0,5.451,1.453,10.779,4.157,15.44
	c-6.527,7.867-10.458,17.962-10.458,28.958c0,7.988,2.104,15.556,5.801,22.146C2.27,317.134,0,324.471,0,332.006
	c0,15.44,9.423,29.072,23.235,34.814c-0.557,2.898-1.072,5.805-1.52,8.73l-0.046,0.303c-0.55,3.749-2.143,19.625,7.906,31.376
	c6.876,8.04,17.288,12.117,30.946,12.117h92.824c4.199,0,7.604-3.405,7.604-7.604s-3.405-7.604-7.604-7.604H60.522
	c-9.01,0-15.533-2.285-19.39-6.794c-6.218-7.27-4.475-18.917-4.397-19.409l0.057-0.373C53.339,270.566,147.525,189.916,256,189.916
	c108.495,0,202.695,80.678,219.216,187.702l0.049,0.317c0.077,0.492,1.824,12.133-4.396,19.406
	c-3.856,4.509-10.379,6.795-19.39,6.795H209.025c-4.199,0-7.604,3.405-7.604,7.604c0,4.199,3.405,7.604,7.604,7.604h242.454
	c13.661,0,24.072-4.078,30.949-12.121c10.042-11.746,8.456-27.603,7.901-31.382l-0.045-0.294c-0.448-2.923-0.962-5.83-1.519-8.725
	C502.658,361.055,512,347.37,512,332.006z M487.177,235.693c1.72,2.534,2.672,5.535,2.672,8.704c0,1.807-0.321,3.581-0.922,5.253
	c-3.188-1.879-6.622-3.376-10.243-4.437L487.177,235.693z M466.732,258.61c16.291,0.421,29.417,13.795,29.417,30.186
	c0,13.791-9.409,25.727-22.426,29.189c-6.265-14.524-13.976-28.398-23.018-41.41L466.732,258.61z M421.703,153.718
	c4.3,4.649,6.394,8.331,8.812,12.584c3.513,6.178,7.495,13.181,18.356,22.579c10.862,9.396,18.364,12.331,24.985,14.918
	c4.558,1.782,8.504,3.324,13.725,6.914c0.077,0.071-46.147,53.408-46.147,53.408c-0.663-0.832-1.329-1.662-2.003-2.486
	c5.712-6.79,8.895-15.367,8.895-24.456c0-20.999-17.085-38.083-38.084-38.083c-2.823,0-5.586,0.312-8.278,0.909
	c-0.354-1.986-0.861-3.92-1.511-5.787C400.455,194.22,410.244,165.29,421.703,153.718z M349.363,193.869
	c0.339-1.609,0.567-3.242,0.693-4.893c4.072-3.318,9.132-5.149,14.426-5.149c12.613,0,22.876,10.261,22.876,22.875
	c0,2.403-0.38,4.757-1.1,7.001C374.539,205.992,362.189,199.363,349.363,193.869z M294.037,177.787
	c-0.081-1.71-0.284-3.389-0.584-5.034c4.299-6.051,11.175-9.63,18.647-9.63c12.613,0,23.995,11.122,22.766,25.092
	C321.625,183.546,307.963,180.05,294.037,177.787z M320.687,111.993c5.658,2.846,8.911,5.559,12.667,8.695
	c5.458,4.554,11.642,9.716,25.109,14.706c13.467,4.991,21.523,5.107,28.629,5.209c4.894,0.07,9.13,0.131,15.276,1.661
	c0.101,0.041-12.31,36.246-12.31,36.246c-6.764-6.142-15.741-9.89-25.576-9.89c-5.884,0-11.604,1.351-16.775,3.892
	c-5.037-13.251-17.262-22.986-31.891-24.411C315.817,148.1,314.216,123.553,320.687,111.993z M212.447,107.926
	c6.294,0.702,10.287,2.116,14.9,3.75c6.7,2.373,14.292,5.064,28.654,5.064s21.955-2.691,28.655-5.064
	c4.614-1.634,8.607-3.05,14.903-3.751c0.105,0.003,1.051,41.757,1.051,41.757c-5.056,1.59-9.707,4.227-13.684,7.744
	c-6.92-9.618-18.199-15.898-30.925-15.898c-12.545,0-23.921,6.028-30.953,15.887c-3.932-3.456-8.575-6.102-13.656-7.715
	C211.391,149.7,212.336,107.93,212.447,107.926z M199.9,163.124c9.454,0,17.713,5.801,21.159,14.186
	c-13.921,2.073-27.591,5.378-40.857,9.853c-0.889-1.489-1.878-2.9-2.946-4.237C178.768,171.732,188.473,163.124,199.9,163.124z
	 M147.517,183.827c7.178,0,13.773,3.338,18.042,8.821c-12.465,5.143-24.498,11.351-35.958,18.575
	c-1.529-1.64-3.189-3.133-4.961-4.466c0-0.018,0.003-0.036,0.003-0.055C124.642,194.088,134.903,183.827,147.517,183.827z
	 M24.421,210.711c5.219-3.588,9.164-5.13,13.723-6.911c6.619-2.588,14.122-5.521,24.984-14.918
	c10.86-9.397,14.843-16.4,18.356-22.579c2.419-4.254,4.514-7.938,8.816-12.587c9.904,2.957,21.246,40.506,21.246,40.506
	c-0.652,1.873-1.159,3.81-1.513,5.801c-2.69-0.598-5.459-0.926-8.276-0.926c-20.999,0-38.084,17.084-38.084,38.083
	c0,9.015,3.186,17.65,8.893,24.459c-0.673,0.823-1.338,1.652-2,2.482C70.565,264.122,24.341,210.786,24.421,210.711z
	 M15.851,288.795c0-16.391,13.125-29.765,29.417-30.186l16.026,17.965c-9.042,13.012-16.753,26.887-23.019,41.411
	C25.255,314.524,15.851,302.596,15.851,288.795z M22.153,244.398c0-3.132,0.959-6.157,2.675-8.7l8.489,9.516
	c-3.623,1.061-7.057,2.559-10.245,4.439C22.471,247.979,22.153,246.202,22.153,244.398z M15.208,332.006
	c0-2.922,0.588-5.786,1.67-8.453c4.573,3.853,9.923,6.826,15.805,8.64c-2.273,6.371-4.274,12.847-5.996,19.411
	C19.77,347.707,15.208,340.3,15.208,332.006z M82.783,249.956c-2.518-3.739-3.901-8.175-3.901-12.776
	c0-12.613,10.262-22.875,22.876-22.875c5.584,0,10.884,2.037,14.999,5.614c-5.437,3.949-10.727,8.132-15.84,12.56
	C94.539,238,88.494,243.84,82.783,249.956z M236.514,175.523c-0.455-1.594-1.007-3.144-1.656-4.641
	c3.552-8.601,11.811-14.145,21.142-14.145c11.313,0,20.727,8.256,22.55,19.057c-7.468-0.714-14.992-1.085-22.55-1.085
	C249.474,174.708,242.975,174.99,236.514,175.523z M411.084,232.479c-3.92-3.394-7.943-6.646-12.055-9.759
	c0.992-2.134,1.768-4.353,2.346-6.629c2.798-1.182,5.774-1.785,8.868-1.785c12.613,0,22.876,10.261,22.876,22.875
	c0,4.636-1.383,9.051-3.9,12.778C423.507,243.841,417.461,238.001,411.084,232.479z M485.316,351.623
	c-1.722-6.572-3.726-13.053-6.001-19.432c5.887-1.817,11.242-4.795,15.817-8.654c1.083,2.656,1.66,5.507,1.66,8.468
	C496.792,340.265,492.27,347.712,485.316,351.623z"/>
</svg>