<?xml version="1.0" encoding="iso-8859-1"?>
<!-- Uploaded to: SVG Repo, www.svgrepo.com, Generator: SVG Repo Mixer Tools -->
<svg height="800px" width="800px" version="1.1" id="Layer_1" xmlns="http://www.w3.org/2000/svg" xmlns:xlink="http://www.w3.org/1999/xlink" 
	 viewBox="0 0 512 512" xml:space="preserve">
<path style="fill:#FFE376;" d="M502.865,188.049C473.095,79.648,373.856,0,256,0C114.615,0,0,114.615,0,256
	c0,117.856,79.648,217.094,188.049,246.865L502.865,188.049z"/>
<path style="fill:#FFD23E;" d="M512,256c0-23.529-3.191-46.309-9.135-67.951l-89.458-89.458L98.592,413.408l89.458,89.458
	c21.641,5.944,44.422,9.135,67.951,9.135C397.385,512,512,397.384,512,256z"/>
<path style="fill:#C9E5FF;" d="M256,33.391L144.696,256L256,478.609c122.943,0,222.609-99.665,222.609-222.609
	S378.943,33.391,256,33.391z"/>
<path style="fill:#FFFFFF;" d="M33.391,256c0,122.943,99.665,222.609,222.609,222.609V33.391
	C133.057,33.391,33.391,133.057,33.391,256z"/>
<path style="fill:#92CCFF;" d="M256,66.783L161.391,256L256,445.217c104.501,0,189.217-84.715,189.217-189.217
	S360.501,66.783,256,66.783z"/>
<path style="fill:#C9E5FF;" d="M66.783,256c0,104.503,84.716,189.217,189.217,189.217V66.783
	C151.499,66.783,66.783,151.497,66.783,256z"/>
<path style="fill:#FA690E;" d="M256,89.043L207.671,256L256,422.957c92.205,0,166.957-74.752,166.957-166.957
	S348.204,89.043,256,89.043z"/>
<path style="fill:#FC870B;" d="M89.043,256c0,92.205,74.752,166.957,166.957,166.957V89.043
	C163.795,89.043,89.043,163.795,89.043,256z"/>
<path style="fill:#FFC207;" d="M400.696,256l-197.751,38.586L256,111.304C335.911,111.304,400.696,176.089,400.696,256z"/>
<path style="fill:#FDA409;" d="M202.945,256h197.751c0,79.911-64.785,144.696-144.696,144.696L202.945,256z"/>
<path style="fill:#FFD23E;" d="M256,111.304V256l-72.348,38.586L111.304,256C111.304,176.089,176.089,111.304,256,111.304z"/>
<path style="fill:#FFC207;" d="M256,256v144.696c-79.911,0-144.696-64.785-144.696-144.696H256z"/>
<path style="fill:#FFD23E;" d="M378.435,256l-167.327,32.649L256,133.565C323.616,133.565,378.435,188.384,378.435,256z"/>
<path style="fill:#FFC207;" d="M211.108,256h167.327c0,67.616-54.819,122.435-122.435,122.435L211.108,256z"/>
<path style="fill:#FC870B;" d="M256,133.565V256l-61.217,32.649L133.565,256C133.565,188.384,188.384,133.565,256,133.565z"/>
<path style="fill:#FFD23E;" d="M256,256v122.435c-67.616,0-122.435-54.819-122.435-122.435H256z"/>
<path style="fill:#FFC207;" d="M356.174,256L219.27,282.713L256,155.826C311.323,155.826,356.174,200.677,356.174,256z"/>
<path style="fill:#FA690E;" d="M219.27,256h136.904c0,55.323-44.851,100.174-100.174,100.174L219.27,256z"/>
<path style="fill:#FFD23E;" d="M256,155.826V256l-50.087,26.713L155.826,256C155.826,200.677,200.677,155.826,256,155.826z"/>
<path style="fill:#FFC207;" d="M256,256v100.174c-55.323,0-100.174-44.851-100.174-100.174H256z"/>
<path style="fill:#FFD23E;" d="M333.913,256l-106.482,20.777L256,178.087C299.029,178.087,333.913,212.971,333.913,256z"/>
<path style="fill:#FFC207;" d="M227.431,256h106.482c0,43.029-34.884,77.913-77.913,77.913L227.431,256z"/>
<path style="fill:#FFE376;" d="M256,178.087V256l-38.957,20.777L178.087,256C178.087,212.971,212.971,178.087,256,178.087z"/>
<path style="fill:#FFD23E;" d="M256,256v77.913c-43.029,0-77.913-34.884-77.913-77.913H256z"/>
<path style="fill:#FFF3AD;" d="M332.8,268.889c0,47.082-35.35,87.285-76.811,87.285L233.728,256l22.261-100.174
	C295.847,155.826,332.8,207.917,332.8,268.889z"/>
<path style="fill:#FFFFFF;" d="M255.989,155.826v200.348c-41.461,0-76.789-40.203-76.789-87.285
	C179.2,207.917,216.142,155.826,255.989,155.826z"/>
<path style="fill:#44702A;" d="M395.13,239.304L386.783,256l8.348,16.696c9.22,0,16.696-7.475,16.696-16.696
	S404.351,239.304,395.13,239.304z"/>
<path style="fill:#63842C;" d="M378.435,256c0,9.22,7.475,16.696,16.696,16.696v-33.391C385.91,239.304,378.435,246.78,378.435,256z
	"/>
<path style="fill:#44702A;" d="M116.87,239.304L108.522,256l8.348,16.696c9.22,0,16.696-7.475,16.696-16.696
	S126.09,239.304,116.87,239.304z"/>
<path style="fill:#63842C;" d="M100.174,256c0,9.22,7.475,16.696,16.696,16.696v-33.391C107.649,239.304,100.174,246.78,100.174,256
	z"/>
<path style="fill:#81982D;" d="M361.739,278.261l-8.348,16.696l8.348,16.696c9.22,0,16.696-7.475,16.696-16.696
	S370.96,278.261,361.739,278.261z"/>
<path style="fill:#A0AD2F;" d="M345.043,294.957c0,9.22,7.475,16.696,16.696,16.696v-33.391
	C352.519,278.261,345.043,285.736,345.043,294.957z"/>
<path style="fill:#81982D;" d="M150.261,311.652l-8.348-16.696l8.348-16.696c9.22,0,16.696,7.475,16.696,16.696
	S159.481,311.652,150.261,311.652z"/>
<path style="fill:#A0AD2F;" d="M133.565,294.957c0-9.22,7.475-16.696,16.696-16.696v33.391
	C141.04,311.652,133.565,304.177,133.565,294.957z"/>
<path style="fill:#81982D;" d="M361.739,233.739l-8.348-16.696l8.348-16.696c9.22,0,16.696,7.475,16.696,16.696
	C378.435,226.264,370.96,233.739,361.739,233.739z"/>
<path style="fill:#A0AD2F;" d="M345.043,217.043c0-9.22,7.475-16.696,16.696-16.696v33.391
	C352.519,233.739,345.043,226.264,345.043,217.043z"/>
<path style="fill:#F72E12;" d="M161.555,206.473l-8.348-16.696l8.348-16.696c9.22,0,16.696,7.475,16.696,16.696
	S170.775,206.473,161.555,206.473z"/>
<path style="fill:#F94C10;" d="M144.859,189.777c0-9.22,7.475-16.696,16.696-16.696v33.391
	C152.334,206.473,144.859,198.998,144.859,189.777z"/>
<path style="fill:#44702A;" d="M256,100.174l-8.348,16.696L256,133.565c9.22,0,16.696-7.475,16.696-16.696
	S265.22,100.174,256,100.174z"/>
<path style="fill:#63842C;" d="M239.304,116.87c0,9.22,7.475,16.696,16.696,16.696v-33.391
	C246.78,100.174,239.304,107.649,239.304,116.87z"/>
<path style="fill:#44702A;" d="M256,378.435l-8.348,16.696L256,411.826c9.22,0,16.696-7.475,16.696-16.696
	C272.696,385.91,265.22,378.435,256,378.435z"/>
<path style="fill:#63842C;" d="M239.304,395.13c0,9.22,7.475,16.696,16.696,16.696v-33.391
	C246.78,378.435,239.304,385.91,239.304,395.13z"/>
<path style="fill:#F72E12;" d="M311.652,354.629l-8.348,16.696l8.348,16.696c9.22,0,16.696-7.475,16.696-16.696
	S320.873,354.629,311.652,354.629z"/>
<path style="fill:#F94C10;" d="M294.957,371.325c0,9.22,7.475,16.696,16.696,16.696v-33.391
	C302.432,354.629,294.957,362.104,294.957,371.325z"/>
<path style="fill:#FA690E;" d="M256,233.739l-25.043,50.087L256,333.913c27.662,0,50.087-22.424,50.087-50.087
	C306.087,256.164,283.662,233.739,256,233.739z"/>
<path style="fill:#FC870B;" d="M205.913,283.826c0,27.662,22.424,50.087,50.087,50.087V233.739
	C228.338,233.739,205.913,256.164,205.913,283.826z"/>
</svg>