<?xml version="1.0" encoding="iso-8859-1"?>
<!-- Uploaded to: SVG Repo, www.svgrepo.com, Generator: SVG Repo Mixer Tools -->
<svg version="1.1" id="Layer_1" xmlns="http://www.w3.org/2000/svg" xmlns:xlink="http://www.w3.org/1999/xlink" 
	 viewBox="0 0 512 512" xml:space="preserve">
<path style="fill:#FC870B;" d="M502.865,188.049C473.095,79.648,373.856,0,256,0C114.615,0,0,114.615,0,256
	c0,117.856,79.648,217.094,188.049,246.865L502.865,188.049z"/>
<path style="fill:#FA690E;" d="M512,256c0-23.529-3.191-46.309-9.135-67.951l-89.458-89.458L98.592,413.408l89.458,89.458
	c21.641,5.944,44.422,9.135,67.951,9.135C397.385,512,512,397.384,512,256z"/>
<path style="fill:#FFF3AD;" d="M256,33.391L144.696,256L256,478.609c122.943,0,222.609-99.665,222.609-222.609
	S378.943,33.391,256,33.391z"/>
<path style="fill:#FFFFFF;" d="M33.391,256c0,122.943,99.665,222.609,222.609,222.609V33.391
	C133.057,33.391,33.391,133.057,33.391,256z"/>
<path style="fill:#FFD23E;" d="M256,66.783L161.391,256L256,445.217c104.501,0,189.217-84.715,189.217-189.217
	S360.501,66.783,256,66.783z"/>
<path style="fill:#FFE376;" d="M66.783,256c0,104.503,84.716,189.217,189.217,189.217V66.783
	C151.499,66.783,66.783,151.497,66.783,256z"/>
<path style="fill:#FFF3AD;" d="M375.652,212.035c0-66.083-53.571-119.652-119.652-119.652l-44.399,150.506L256,400.696
	c66.081,0,119.652-53.57,119.652-119.652C375.652,270.374,375.652,222.704,375.652,212.035z"/>
<path style="fill:#FFFFFF;" d="M136.348,212.035c0,10.67,0,58.339,0,69.009c0,66.083,53.571,119.652,119.652,119.652V92.383
	C189.919,92.383,136.348,145.952,136.348,212.035z"/>
<path style="fill:#FA690E;" d="M256,114.643l-30.609,61.217L256,237.078c33.81,0,61.217-27.408,61.217-61.217
	S289.81,114.643,256,114.643z"/>
<path style="fill:#FC870B;" d="M194.783,175.861c0,33.81,27.408,61.217,61.217,61.217v-22.261l-16.696-38.957L256,136.904v-22.261
	C222.19,114.643,194.783,142.051,194.783,175.861z"/>
<path style="fill:#FDA409;" d="M217.043,175.861c0,21.515,17.441,38.957,38.957,38.957v-77.913
	C234.485,136.904,217.043,154.346,217.043,175.861z"/>
<polygon style="fill:#FA7461;" points="422.957,267.13 300.522,267.13 256,356.174 378.435,333.913 422.957,333.913 
	422.957,311.652 400.696,300.522 422.957,289.391 "/>
<polygon style="fill:#FB9789;" points="178.087,267.13 178.087,289.391 200.348,300.522 178.087,311.652 178.087,333.913 
	300.522,356.174 300.522,267.13 "/>
<polygon style="fill:#FCB9B0;" points="422.957,289.391 422.957,311.652 300.522,311.652 293.195,300.522 300.522,289.391 "/>
<rect x="178.087" y="289.391" style="fill:#FEDCD7;" width="122.435" height="22.261"/>
<polygon style="fill:#F8513A;" points="378.435,333.913 256,333.913 239.304,367.304 256,400.696 378.435,400.696 378.435,378.435 
	356.174,367.304 378.435,356.174 "/>
<polygon style="fill:#FA7461;" points="133.565,333.913 133.565,356.174 155.826,367.304 133.565,378.435 133.565,400.696 
	256,400.696 256,333.913 "/>
<polygon style="fill:#FCB9B0;" points="378.435,356.174 378.435,378.435 256,378.435 248.673,367.304 256,356.174 "/>
<rect x="133.565" y="356.174" style="fill:#FEDCD7;" width="122.435" height="22.261"/>
<rect x="158.609" y="222.609" style="fill:#FFF3AD;" width="22.261" height="22.261"/>
</svg>