<?xml version="1.0" encoding="iso-8859-1"?>
<!-- Uploaded to: SVG Repo, www.svgrepo.com, Generator: SVG Repo Mixer Tools -->
<svg height="800px" width="800px" version="1.1" id="Layer_1" xmlns="http://www.w3.org/2000/svg" xmlns:xlink="http://www.w3.org/1999/xlink" 
	 viewBox="0 0 512 512" xml:space="preserve">
<path style="fill:#E4E9EE;" d="M448.577,165.403c6.934-18.44,5.511-39.358-4.609-56.881c-10.12-17.538-27.543-29.24-47-32.435
	c-3.196-19.462-14.903-36.881-32.445-47.005c-17.533-10.12-38.457-11.56-56.924-4.587C295.109,9.239,276.261,0,256,0
	c-20.25,0-39.098,9.239-51.597,24.495c-18.435-6.968-39.381-5.543-56.924,4.587c-17.533,10.125-29.24,27.549-32.435,47.005
	c-19.456,3.196-36.88,14.897-46.999,32.435c-10.12,17.522-11.543,38.435-4.609,56.875c-19.184,15.598-28.392,40.81-22.902,66.294
	h430.946C476.967,206.212,467.761,180.994,448.577,165.403z"/>
<path style="fill:#CED7E2;" d="M257.78,231.69h213.699c5.49-25.479-3.718-50.696-22.902-66.288
	c6.934-18.44,5.511-39.358-4.609-56.881c-10.12-17.538-27.543-29.24-47-32.435c-3.196-19.462-14.903-36.881-32.445-47.005
	c-17.533-10.12-38.457-11.56-56.924-4.587C295.109,9.239,276.261,0,256,0c-0.122,0-0.242,0.02-0.364,0.02L257.78,231.69z"/>
<path style="fill:#BA4931;" d="M322.783,512H189.217c-27.619,0-50.087-22.468-50.087-50.087v-12.499
	C57.652,406.255,5.565,320.565,5.565,228.174c0-9.223,7.479-16.696,16.696-16.696h467.478c9.217,0,16.696,7.473,16.696,16.696
	c0,92.397-52.087,178.087-133.565,221.24v12.499C372.87,489.532,350.402,512,322.783,512z"/>
<path style="fill:#AD3D25;" d="M260.375,512h62.407c27.619,0,50.087-22.468,50.087-50.087v-12.499
	c81.478-43.153,133.565-128.843,133.565-221.24c0-9.223-7.479-16.696-16.696-16.696H257.593L260.375,512z"/>
</svg>