<?xml version="1.0" encoding="iso-8859-1"?>
<!-- Uploaded to: SVG Repo, www.svgrepo.com, Generator: SVG Repo Mixer Tools -->
<svg height="800px" width="800px" version="1.1" id="Layer_1" xmlns="http://www.w3.org/2000/svg" xmlns:xlink="http://www.w3.org/1999/xlink" 
	 viewBox="0 0 512 512" xml:space="preserve">
<path style="fill:#0D5D52;" d="M511.078,277.668C511.677,270.523,512,263.299,512,256C512,114.615,397.384,0,256,0
	C114.615,0,0,114.615,0,256c0,129.419,96.041,236.388,220.737,253.571L511.078,277.668z"/>
<path style="fill:#193D2F;" d="M72.626,361.461l148.11,148.11C232.265,511.16,244.034,512,256,512
	c134.085,0,244.077-103.091,255.078-234.332L350.445,117.033L72.626,361.461z"/>
<path style="fill:#81982D;" d="M256,77.913l-66.783,133.565L256,345.043c73.766,0,133.565-59.799,133.565-133.565
	S329.766,77.913,256,77.913z"/>
<g>
	<path style="fill:#A0AD2F;" d="M122.435,211.478c0,73.766,59.799,133.565,133.565,133.565V77.913
		C182.234,77.913,122.435,137.712,122.435,211.478z"/>
	<circle style="fill:#A0AD2F;" cx="356.174" cy="264.904" r="100.73"/>
</g>
<g>
	<circle style="fill:#BEC130;" cx="155.826" cy="264.904" r="100.174"/>
	<path style="fill:#BEC130;" d="M256,111.304l-50.087,100.174L256,311.652c55.324,0,100.174-44.849,100.174-100.174
		S311.324,111.304,256,111.304z"/>
</g>
<path style="fill:#DDD532;" d="M155.826,211.478c0,55.325,44.85,100.174,100.174,100.174V111.304
	C200.675,111.304,155.826,156.153,155.826,211.478z"/>
<path style="fill:#C9E5FF;" d="M256,133.565l-38.957,77.913L256,289.391c43.03,0,77.913-34.883,77.913-77.913
	S299.03,133.565,256,133.565z"/>
<path style="fill:#FFFFFF;" d="M178.087,211.478c0,43.03,34.883,77.913,77.913,77.913V133.565
	C212.97,133.565,178.087,168.448,178.087,211.478z"/>
<path style="fill:#92CCFF;" d="M256,155.826l-27.826,55.652L256,267.13c30.736,0,55.652-24.917,55.652-55.652
	S286.736,155.826,256,155.826z"/>
<g>
	<path style="fill:#C9E5FF;" d="M200.348,211.478c0,30.736,24.917,55.652,55.652,55.652V155.826
		C225.264,155.826,200.348,180.743,200.348,211.478z"/>
	<path style="fill:#C9E5FF;" d="M256,178.087l-16.696,33.391L256,244.87c18.441,0,33.391-14.949,33.391-33.391
		S274.441,178.087,256,178.087z"/>
</g>
<path style="fill:#FFFFFF;" d="M222.609,211.478c0,18.442,14.95,33.391,33.391,33.391v-66.783
	C237.558,178.087,222.609,193.036,222.609,211.478z"/>
<path style="fill:#F72E12;" d="M278.261,189.217l-38.957,77.913l38.957,77.913c43.03,0,77.913-34.883,77.913-77.913
	S321.291,189.217,278.261,189.217z"/>
<path style="fill:#F8513A;" d="M200.348,267.13c0,43.03,34.883,77.913,77.913,77.913V189.217
	C235.231,189.217,200.348,224.1,200.348,267.13z"/>
<path style="fill:#FA7461;" d="M278.261,211.478l-27.826,55.652l27.826,55.652c30.736,0,55.652-24.917,55.652-55.652
	S308.996,211.478,278.261,211.478z"/>
<path style="fill:#FB9789;" d="M222.609,267.13c0,30.736,24.917,55.652,55.652,55.652V211.478
	C247.525,211.478,222.609,236.395,222.609,267.13z"/>
<path style="fill:#F72E12;" d="M356.174,189.217l-38.957,77.913l38.957,77.913c43.03,0,77.913-34.883,77.913-77.913
	S399.204,189.217,356.174,189.217z"/>
<g>
	<path style="fill:#F8513A;" d="M278.261,267.13c0,43.03,34.883,77.913,77.913,77.913V189.217
		C313.144,189.217,278.261,224.1,278.261,267.13z"/>
	<path style="fill:#F8513A;" d="M356.174,211.478l-27.826,55.652l27.826,55.652c30.736,0,55.652-24.917,55.652-55.652
		S386.909,211.478,356.174,211.478z"/>
</g>
<path style="fill:#FA7461;" d="M300.522,267.13c0,30.736,24.917,55.652,55.652,55.652V211.478
	C325.438,211.478,300.522,236.395,300.522,267.13z"/>
<path style="fill:#C9E5FF;" d="M256,267.13l-44.522,63.443L256,400.696h89.043c73.461,0,133.565-60.104,133.565-133.565H256z"/>
<path style="fill:#F72E12;" d="M122.435,222.609l-22.261,44.522l22.261,44.522c24.588,0,44.522-19.934,44.522-44.522
	C166.957,242.542,147.023,222.609,122.435,222.609z"/>
<path style="fill:#F8513A;" d="M77.913,267.13c0,24.588,19.933,44.522,44.522,44.522v-89.043
	C97.847,222.609,77.913,242.542,77.913,267.13z"/>
<path style="fill:#FFE376;" d="M178.087,244.87l-11.13,22.261l11.13,22.261c12.295,0,22.261-9.966,22.261-22.261
	C200.348,254.836,190.382,244.87,178.087,244.87z"/>
<path style="fill:#FFF3AD;" d="M155.826,267.13c0,12.295,9.966,22.261,22.261,22.261V244.87
	C165.792,244.87,155.826,254.836,155.826,267.13z"/>
<path style="fill:#FFFFFF;" d="M256,267.13v133.565h-89.043c-73.461,0-133.565-60.104-133.565-133.565H256z"/>
<path style="fill:#BEC130;" d="M256,289.391h198.111c-10.34,50.744-55.318,89.043-109.067,89.043H256l-22.261-44.522L256,289.391z"
	/>
<path style="fill:#DDD532;" d="M256,289.391v89.043h-89.043c-53.749,0-98.727-38.3-109.067-89.043H256z"/>
</svg>